<?xml version="1.0" encoding="utf-8"?>
<!-- Generator: Adobe Illustrator 23.0.1, SVG Export Plug-In . SVG Version: 6.00 Build 0)  -->
<svg version="1.1" id="Layer_1" xmlns="http://www.w3.org/2000/svg" xmlns:xlink="http://www.w3.org/1999/xlink" x="0px" y="0px"
	 viewBox="0 0 200 60" style="enable-background:new 0 0 200 60;" xml:space="preserve">
<style type="text/css">
	.st0{fill:#FFFFFF;}
	.st1{fill:url(#SVGID_1_);}
	.st2{fill:#171716;stroke:#000000;stroke-miterlimit:10;}
	.st3{fill:#D5A229;}
	.st4{font-family:'MyriadPro-Regular';}
	.st5{font-size:24.051px;}
	.st6{fill:#D5A229;stroke:#000000;stroke-width:0.5;stroke-miterlimit:10;}
	.st7{font-size:22.1144px;}
</style>
<rect class="st0" width="200" height="60"/>
<g>
	<linearGradient id="SVGID_1_" gradientUnits="userSpaceOnUse" x1="57.8508" y1="9.5547" x2="58.3778" y2="36.9549">
		<stop  offset="0" style="stop-color:#9C7C2D"/>
		<stop  offset="1" style="stop-color:#D5A229"/>
	</linearGradient>
	<polygon class="st1" points="68.28,12.74 68.28,24.51 63.8,29.03 60.62,32.24 57.94,34.95 52.08,29.03 52.14,28.98 47.77,24.58 
		47.77,12.74 58,23.07 58.03,23.1 66.68,14.36 	"/>
	<g>
		<path class="st2" d="M45.9,11.68h-7.81v40.33h9.6V13.48L45.9,11.68z M46.08,49.82c-0.42,0.3-0.99,0.48-1.62,0.48h-3.14
			c-1.27,0-2.29-0.73-2.29-1.62c0-0.45,0.26-0.85,0.67-1.15c0.42-0.29,0.99-0.47,1.62-0.47h3.14c1.26,0,2.29,0.72,2.29,1.62
			C46.75,49.13,46.49,49.53,46.08,49.82z M46.08,45.05c-0.42,0.3-0.99,0.48-1.62,0.48h-3.14c-1.27,0-2.29-0.73-2.29-1.63
			c0-0.44,0.26-0.85,0.67-1.14c0.42-0.29,0.99-0.48,1.62-0.48h3.14c1.26,0,2.29,0.73,2.29,1.62C46.75,44.35,46.49,44.76,46.08,45.05
			z M46.08,40.28c-0.42,0.29-0.99,0.47-1.62,0.47h-3.14c-1.27,0-2.29-0.72-2.29-1.62c0-0.44,0.26-0.85,0.67-1.14
			c0.42-0.3,0.99-0.48,1.62-0.48h3.14c1.26,0,2.29,0.73,2.29,1.62C46.75,39.58,46.49,39.99,46.08,40.28z M46.08,35.51
			c-0.42,0.29-0.99,0.47-1.62,0.47h-3.14c-1.27,0-2.29-0.72-2.29-1.62c0-0.45,0.26-0.85,0.67-1.15c0.42-0.29,0.99-0.47,1.62-0.47
			h3.14c1.26,0,2.29,0.73,2.29,1.62C46.75,34.81,46.49,35.21,46.08,35.51z M46.08,30.73c-0.42,0.3-0.99,0.48-1.62,0.48h-3.14
			c-1.27,0-2.29-0.73-2.29-1.62c0-0.45,0.26-0.86,0.67-1.15c0.42-0.29,0.99-0.47,1.62-0.47h3.14c1.26,0,2.29,0.72,2.29,1.62
			C46.75,30.03,46.49,30.44,46.08,30.73z M46.08,25.96c-0.42,0.29-0.99,0.47-1.62,0.47h-3.14c-1.27,0-2.29-0.72-2.29-1.62
			c0-0.44,0.26-0.85,0.67-1.14c0.42-0.29,0.99-0.48,1.62-0.48h3.14c0.03,0,0.05,0,0.08,0.01h0.05c0.05,0,0.09,0,0.14,0.01
			c0.04,0,0.09,0,0.13,0.01c0.03,0,0.05,0.01,0.08,0.01c0.04,0.01,0.07,0.01,0.11,0.02c0.02,0,0.04,0.01,0.06,0.01
			c0.13,0.03,0.25,0.06,0.37,0.11c0.04,0.01,0.08,0.02,0.12,0.04c0.06,0.03,0.12,0.05,0.18,0.08c0.09,0.04,0.17,0.09,0.24,0.14h0.01
			c0.01,0.01,0.02,0.02,0.03,0.03c0.01,0.01,0.03,0.02,0.04,0.03c0.07,0.04,0.13,0.09,0.18,0.15c0.02,0.02,0.03,0.03,0.05,0.05
			c0.02,0.01,0.04,0.03,0.05,0.05c0.06,0.05,0.1,0.1,0.13,0.16c0.01,0.01,0.01,0.01,0.01,0.02l0.02,0.03
			c0.01,0.01,0.01,0.02,0.02,0.03c0.02,0.03,0.04,0.06,0.05,0.09c0.01,0.02,0.02,0.04,0.03,0.06c0.01,0.02,0.02,0.04,0.02,0.06
			c0.01,0.02,0.02,0.04,0.03,0.06c0.01,0.03,0.02,0.05,0.02,0.08c0.01,0.02,0.01,0.04,0.02,0.07c0,0.03,0.01,0.06,0.01,0.09
			c0,0.04,0.01,0.08,0.01,0.12C46.75,25.26,46.49,25.67,46.08,25.96z M46.08,21.19c-0.42,0.29-0.99,0.47-1.62,0.47h-3.14
			c-1.27,0-2.29-0.72-2.29-1.62c0-0.45,0.26-0.85,0.67-1.14c0.32-0.23,0.73-0.39,1.19-0.45c0.11-0.02,0.22-0.02,0.33-0.03h3.24
			c1.26,0,2.29,0.73,2.29,1.62C46.75,20.49,46.49,20.9,46.08,21.19z M46.74,15.41c-0.01,0.02-0.01,0.04-0.01,0.05
			c0,0.02-0.01,0.04-0.01,0.06c-0.01,0.03-0.01,0.06-0.02,0.09c-0.01,0.03-0.03,0.07-0.04,0.11l-0.01,0.01
			c-0.01,0.04-0.03,0.07-0.04,0.1c-0.04,0.06-0.08,0.13-0.13,0.19c-0.02,0.03-0.04,0.06-0.07,0.09c-0.01,0.02-0.04,0.04-0.06,0.07
			l-0.04,0.04c-0.03,0.03-0.06,0.06-0.09,0.08c-0.04,0.04-0.09,0.08-0.14,0.12c-0.42,0.29-0.99,0.47-1.62,0.47h-3.14
			c-1.27,0-2.29-0.73-2.29-1.62c0-0.45,0.26-0.85,0.67-1.15c0.42-0.29,0.99-0.47,1.62-0.47h3.14c1.26,0,2.29,0.72,2.29,1.62
			C46.75,15.32,46.74,15.36,46.74,15.41z"/>
	</g>
	<g>
		<path class="st2" d="M70.07,11.67l-1.79,1.81v38.53h9.6V11.67H70.07z M76.27,49.82c-0.41,0.29-0.99,0.47-1.62,0.47h-3.13
			c-1.27,0-2.3-0.72-2.3-1.62c0-0.45,0.26-0.85,0.68-1.15c0.41-0.29,0.98-0.47,1.62-0.47h3.13c1.27,0,2.29,0.73,2.29,1.62
			C76.94,49.12,76.69,49.52,76.27,49.82z M76.27,45.04c-0.41,0.3-0.99,0.48-1.62,0.48h-3.13c-1.27,0-2.3-0.73-2.3-1.62
			c0-0.45,0.26-0.85,0.68-1.15c0.41-0.29,0.98-0.47,1.62-0.47h3.13c1.27,0,2.29,0.72,2.29,1.62C76.94,44.35,76.69,44.75,76.27,45.04
			z M76.27,40.27c-0.41,0.29-0.99,0.48-1.62,0.48h-3.13c-1.27,0-2.3-0.73-2.3-1.62c0-0.45,0.26-0.86,0.68-1.15
			c0.03-0.02,0.06-0.05,0.1-0.07c0.01-0.01,0.03-0.02,0.05-0.03c0.01-0.01,0.03-0.02,0.05-0.02c0.04-0.03,0.08-0.05,0.12-0.07
			c0.04-0.02,0.07-0.03,0.11-0.05c0.03-0.01,0.06-0.03,0.1-0.04c0.02-0.01,0.05-0.02,0.08-0.03c0.04-0.01,0.08-0.02,0.12-0.04
			c0.03-0.01,0.06-0.02,0.1-0.03c0.04,0,0.07-0.01,0.11-0.02c0.04-0.01,0.09-0.02,0.14-0.03h0.03c0.04-0.01,0.08-0.02,0.12-0.02
			c0.02,0,0.04,0,0.06-0.01h0.05c0.04-0.01,0.08-0.01,0.12-0.01h3.29c1.27,0,2.29,0.72,2.29,1.62
			C76.94,39.57,76.69,39.98,76.27,40.27z M76.27,35.5c-0.41,0.29-0.99,0.47-1.62,0.47h-3.13c-1.27,0-2.3-0.72-2.3-1.62
			c0-0.44,0.26-0.85,0.68-1.14c0.41-0.3,0.98-0.48,1.62-0.48h3.13c1.27,0,2.29,0.73,2.29,1.62C76.94,34.8,76.69,35.21,76.27,35.5z
			 M76.27,30.73c-0.41,0.29-0.99,0.47-1.62,0.47h-3.13c-1.27,0-2.3-0.72-2.3-1.62c0-0.45,0.26-0.85,0.68-1.15
			c0.41-0.29,0.98-0.47,1.62-0.47h3.13c1.27,0,2.29,0.73,2.29,1.62C76.94,30.03,76.69,30.43,76.27,30.73z M76.27,25.95
			c-0.41,0.3-0.99,0.48-1.62,0.48h-3.13c-1.27,0-2.3-0.73-2.3-1.62c0-0.23,0.07-0.44,0.19-0.63v-0.01c0.12-0.2,0.28-0.36,0.48-0.5
			c0.02-0.02,0.04-0.03,0.06-0.04v-0.01c0.41-0.27,0.96-0.43,1.57-0.43h3.13c1.27,0,2.29,0.72,2.29,1.62
			C76.94,25.26,76.69,25.66,76.27,25.95z M76.27,21.18c-0.41,0.29-0.99,0.48-1.62,0.48h-3.13c-1.27,0-2.3-0.73-2.3-1.62
			c0-0.45,0.26-0.86,0.68-1.15c0.41-0.29,0.98-0.48,1.62-0.48h3.13c0.15,0,0.29,0.01,0.43,0.03c1.06,0.15,1.86,0.8,1.86,1.6
			C76.94,20.48,76.69,20.89,76.27,21.18z M76.27,16.41c-0.41,0.29-0.99,0.47-1.62,0.47h-3.13c-1.27,0-2.3-0.72-2.3-1.62
			c0-0.44,0.26-0.85,0.68-1.14c0.41-0.3,0.98-0.48,1.62-0.48h3.13c1.27,0,2.29,0.73,2.29,1.62C76.94,15.71,76.69,16.12,76.27,16.41z
			"/>
	</g>
	<g>
		<path class="st2" d="M97.03,5.61c-9.08,0-16.43,5.2-16.43,11.62c0,6.42,7.36,11.62,16.43,11.62c9.08,0,16.43-5.2,16.43-11.62
			C113.46,10.81,106.1,5.61,97.03,5.61z M107.05,11.16c2.09,0,3.78,1.2,3.78,2.67c0,1.48-1.69,2.67-3.78,2.67
			c-2.09,0-3.78-1.2-3.78-2.67C103.27,12.35,104.96,11.16,107.05,11.16z M97.03,6.75c2.09,0,3.78,1.2,3.78,2.67
			s-1.69,2.67-3.78,2.67c-2.09,0-3.78-1.2-3.78-2.67S94.94,6.75,97.03,6.75z M87.01,11.16c2.09,0,3.78,1.2,3.78,2.67
			c0,1.48-1.69,2.67-3.78,2.67c-2.09,0-3.78-1.2-3.78-2.67C83.23,12.35,84.92,11.16,87.01,11.16z M87.01,23.85
			c-2.09,0-3.78-1.2-3.78-2.67s1.69-2.67,3.78-2.67c2.09,0,3.78,1.2,3.78,2.67S89.09,23.85,87.01,23.85z M97.03,27.71
			c-2.09,0-3.78-1.2-3.78-2.67c0-1.48,1.69-2.67,3.78-2.67c2.09,0,3.78,1.2,3.78,2.67C100.81,26.52,99.11,27.71,97.03,27.71z
			 M97.03,21.64c-3.45,0-6.24-1.98-6.24-4.41c0-2.44,2.79-4.41,6.24-4.41c3.45,0,6.24,1.98,6.24,4.41
			C103.27,19.67,100.48,21.64,97.03,21.64z M107.05,23.85c-2.09,0-3.78-1.2-3.78-2.67s1.69-2.67,3.78-2.67
			c2.09,0,3.78,1.2,3.78,2.67S109.14,23.85,107.05,23.85z"/>
		<ellipse class="st3" cx="97.03" cy="17.23" rx="4.81" ry="3.4"/>
	</g>
	<text transform="matrix(1.4746 0 0 1 115.7974 29.041)" class="st4 st5">VIE</text>
	<text transform="matrix(1.4143 0 0 1 85.3209 51.2383)" class="st6 st4 st7">BASE</text>
</g>
</svg>
