<?xml version="1.0" encoding="utf-8"?>
<!-- Generator: Adobe Illustrator 23.0.1, SVG Export Plug-In . SVG Version: 6.00 Build 0)  -->
<svg version="1.1" id="Layer_1" xmlns="http://www.w3.org/2000/svg" xmlns:xlink="http://www.w3.org/1999/xlink" x="0px" y="0px"
	 viewBox="0 0 200 60" style="enable-background:new 0 0 200 60;" xml:space="preserve">
<style type="text/css">
	.st0{fill:url(#SVGID_1_);}
	.st1{fill:#171716;stroke:#000000;stroke-width:0.75;stroke-miterlimit:10;}
	.st2{fill:#D5A229;}
	.st3{font-family:'ArialMT';}
	.st4{font-size:24.051px;}
	.st5{font-size:22.1144px;}
	.st6{fill:none;}
</style>
<linearGradient id="SVGID_1_" gradientUnits="userSpaceOnUse" x1="57.8499" y1="50.4453" x2="58.3769" y2="23.0451" gradientTransform="matrix(1 0 0 -1 0 60)">
	<stop  offset="0" style="stop-color:#9C7C2D"/>
	<stop  offset="1" style="stop-color:#D5A229"/>
</linearGradient>
<polygon class="st0" points="68.3,12.7 68.3,24.5 63.8,29 60.6,32.2 57.9,35 52.1,29 52.1,29 47.8,24.6 47.8,12.7 58,23.1 58,23.1 
	66.7,14.4 "/>
<g>
	<path class="st1" d="M45.9,11.7h-7.8V52h9.6V13.5L45.9,11.7z M46.1,49.8c-0.4,0.3-1,0.5-1.6,0.5h-3.1c-1.3,0-2.3-0.7-2.3-1.6
		c0-0.5,0.3-0.8,0.7-1.2c0.4-0.3,1-0.5,1.6-0.5h3.1c1.3,0,2.3,0.7,2.3,1.6C46.8,49.1,46.5,49.5,46.1,49.8z M46.1,45
		c-0.4,0.3-1,0.5-1.6,0.5h-3.1c-1.3,0-2.3-0.7-2.3-1.6c0-0.4,0.3-0.8,0.7-1.1c0.4-0.3,1-0.5,1.6-0.5h3.1c1.3,0,2.3,0.7,2.3,1.6
		C46.8,44.3,46.5,44.8,46.1,45z M46.1,40.3c-0.4,0.3-1,0.5-1.6,0.5h-3.1c-1.3,0-2.3-0.7-2.3-1.6c0-0.4,0.3-0.8,0.7-1.1
		c0.4-0.3,1-0.5,1.6-0.5h3.1c1.3,0,2.3,0.7,2.3,1.6C46.8,39.6,46.5,40,46.1,40.3z M46.1,35.5c-0.4,0.3-1,0.5-1.6,0.5h-3.1
		c-1.3,0-2.3-0.7-2.3-1.6c0-0.5,0.3-0.8,0.7-1.2c0.4-0.3,1-0.5,1.6-0.5h3.1c1.3,0,2.3,0.7,2.3,1.6C46.8,34.8,46.5,35.2,46.1,35.5z
		 M46.1,30.7c-0.4,0.3-1,0.5-1.6,0.5h-3.1c-1.3,0-2.3-0.7-2.3-1.6c0-0.5,0.3-0.9,0.7-1.1c0.4-0.3,1-0.5,1.6-0.5h3.1
		c1.3,0,2.3,0.7,2.3,1.6C46.8,30,46.5,30.4,46.1,30.7z M46.1,26c-0.4,0.3-1,0.5-1.6,0.5h-3.1c-1.3,0-2.3-0.7-2.3-1.6
		c0-0.4,0.3-0.9,0.7-1.1c0.4-0.3,1-0.5,1.6-0.5h3.1c0,0,0,0,0.1,0h0c0,0,0.1,0,0.1,0c0,0,0.1,0,0.1,0c0,0,0,0,0.1,0c0,0,0.1,0,0.1,0
		c0,0,0,0,0.1,0c0.1,0,0.3,0.1,0.4,0.1c0,0,0.1,0,0.1,0c0.1,0,0.1,0,0.2,0.1c0.1,0,0.2,0.1,0.2,0.1h0c0,0,0,0,0,0s0,0,0,0
		c0.1,0,0.1,0.1,0.2,0.1c0,0,0,0,0,0c0,0,0,0,0,0c0.1,0,0.1,0.1,0.1,0.2c0,0,0,0,0,0l0,0c0,0,0,0,0,0c0,0,0,0.1,0,0.1c0,0,0,0,0,0.1
		c0,0,0,0,0,0.1c0,0,0,0,0,0.1c0,0,0,0,0,0.1c0,0,0,0,0,0.1c0,0,0,0.1,0,0.1c0,0,0,0.1,0,0.1C46.8,25.3,46.5,25.7,46.1,26z
		 M46.1,21.2c-0.4,0.3-1,0.5-1.6,0.5h-3.1c-1.3,0-2.3-0.7-2.3-1.6c0-0.5,0.3-0.9,0.7-1.1c0.3-0.2,0.7-0.4,1.2-0.5c0.1,0,0.2,0,0.3,0
		h3.2c1.3,0,2.3,0.7,2.3,1.6C46.8,20.5,46.5,20.9,46.1,21.2z M46.7,15.4C46.7,15.4,46.7,15.4,46.7,15.4c0,0.1,0,0.1,0,0.1
		c0,0,0,0.1,0,0.1c0,0,0,0.1,0,0.1l0,0c0,0,0,0.1,0,0.1c0,0.1-0.1,0.1-0.1,0.2c0,0,0,0.1-0.1,0.1c0,0,0,0-0.1,0.1l0,0
		c0,0-0.1,0.1-0.1,0.1c0,0-0.1,0.1-0.1,0.1c-0.4,0.3-1,0.5-1.6,0.5h-3.1c-1.3,0-2.3-0.7-2.3-1.6c0-0.4,0.3-0.9,0.7-1.1
		c0.4-0.3,1-0.5,1.6-0.5h3.1c1.3,0,2.3,0.7,2.3,1.6C46.8,15.3,46.7,15.4,46.7,15.4z"/>
</g>
<g>
	<path class="st1" d="M70.1,11.7l-1.8,1.8V52h9.6V11.7H70.1z M76.3,49.8c-0.4,0.3-1,0.5-1.6,0.5h-3.1c-1.3,0-2.3-0.7-2.3-1.6
		c0-0.5,0.3-0.8,0.7-1.2c0.4-0.3,1-0.5,1.6-0.5h3.1c1.3,0,2.3,0.7,2.3,1.6C76.9,49.1,76.7,49.5,76.3,49.8z M76.3,45
		c-0.4,0.3-1,0.5-1.6,0.5h-3.1c-1.3,0-2.3-0.7-2.3-1.6c0-0.5,0.3-0.8,0.7-1.2c0.4-0.3,1-0.5,1.6-0.5h3.1c1.3,0,2.3,0.7,2.3,1.6
		C76.9,44.3,76.7,44.8,76.3,45z M76.3,40.3c-0.4,0.3-1,0.5-1.6,0.5h-3.1c-1.3,0-2.3-0.7-2.3-1.6c0-0.5,0.3-0.9,0.7-1.2
		c0,0,0.1,0,0.1-0.1c0,0,0,0,0.1,0c0,0,0,0,0.1,0c0,0,0.1,0,0.1-0.1s0.1,0,0.1,0c0,0,0.1,0,0.1,0c0,0,0.1,0,0.1,0c0,0,0.1,0,0.1,0
		c0,0,0.1,0,0.1,0c0,0,0.1,0,0.1,0c0,0,0.1,0,0.1,0h0c0,0,0.1,0,0.1,0c0,0,0,0,0.1,0h0.1c0,0,0.1,0,0.1,0h3.3c1.3,0,2.3,0.7,2.3,1.6
		C76.9,39.6,76.7,40,76.3,40.3z M76.3,35.5c-0.4,0.3-1,0.5-1.6,0.5h-3.1c-1.3,0-2.3-0.7-2.3-1.6c0-0.4,0.3-0.8,0.7-1.1
		c0.4-0.3,1-0.5,1.6-0.5h3.1c1.3,0,2.3,0.7,2.3,1.6C76.9,34.8,76.7,35.2,76.3,35.5z M76.3,30.7c-0.4,0.3-1,0.5-1.6,0.5h-3.1
		c-1.3,0-2.3-0.7-2.3-1.6c0-0.5,0.3-0.9,0.7-1.1c0.4-0.3,1-0.5,1.6-0.5h3.1c1.3,0,2.3,0.7,2.3,1.6C76.9,30,76.7,30.4,76.3,30.7z
		 M76.3,26c-0.4,0.3-1,0.5-1.6,0.5h-3.1c-1.3,0-2.3-0.7-2.3-1.6c0-0.2,0.1-0.4,0.2-0.6v0c0.1-0.2,0.3-0.4,0.5-0.5c0,0,0,0,0.1,0v0
		c0.4-0.3,1-0.4,1.6-0.4h3.1c1.3,0,2.3,0.7,2.3,1.6C76.9,25.3,76.7,25.7,76.3,26z M76.3,21.2c-0.4,0.3-1,0.5-1.6,0.5h-3.1
		c-1.3,0-2.3-0.7-2.3-1.6c0-0.5,0.3-0.9,0.7-1.1c0.4-0.3,1-0.5,1.6-0.5h3.1c0.2,0,0.3,0,0.4,0c1.1,0.1,1.9,0.8,1.9,1.6
		C76.9,20.5,76.7,20.9,76.3,21.2z M76.3,16.4c-0.4,0.3-1,0.5-1.6,0.5h-3.1c-1.3,0-2.3-0.7-2.3-1.6c0-0.4,0.3-0.9,0.7-1.1
		c0.4-0.3,1-0.5,1.6-0.5h3.1c1.3,0,2.3,0.7,2.3,1.6C76.9,15.7,76.7,16.1,76.3,16.4z"/>
</g>
<g>
	<path class="st1" d="M97,5.6c-9.1,0-16.4,5.2-16.4,11.6S88,28.8,97,28.8c9.1,0,16.4-5.2,16.4-11.6S106.1,5.6,97,5.6z M107.1,11.2
		c2.1,0,3.8,1.2,3.8,2.7c0,1.5-1.7,2.7-3.8,2.7s-3.8-1.2-3.8-2.7C103.3,12.4,105,11.2,107.1,11.2z M97,6.8c2.1,0,3.8,1.2,3.8,2.7
		s-1.7,2.7-3.8,2.7s-3.8-1.2-3.8-2.7S94.9,6.8,97,6.8z M87,11.2c2.1,0,3.8,1.2,3.8,2.7c0,1.5-1.7,2.7-3.8,2.7s-3.8-1.2-3.8-2.7
		C83.2,12.4,84.9,11.2,87,11.2z M87,23.9c-2.1,0-3.8-1.2-3.8-2.7s1.7-2.7,3.8-2.7s3.8,1.2,3.8,2.7S89.1,23.9,87,23.9z M97,27.7
		c-2.1,0-3.8-1.2-3.8-2.7c0-1.5,1.7-2.7,3.8-2.7s3.8,1.2,3.8,2.7C100.8,26.5,99.1,27.7,97,27.7z M97,21.6c-3.4,0-6.2-2-6.2-4.4
		c0-2.4,2.8-4.4,6.2-4.4s6.2,2,6.2,4.4C103.3,19.7,100.5,21.6,97,21.6z M107.1,23.9c-2.1,0-3.8-1.2-3.8-2.7s1.7-2.7,3.8-2.7
		s3.8,1.2,3.8,2.7S109.1,23.9,107.1,23.9z"/>
	<ellipse class="st2" cx="97" cy="17.2" rx="4.8" ry="3.4"/>
</g>
<text transform="matrix(1.4746 0 0 1 115.7969 29.041)" class="st3 st4">VIE</text>
<text transform="matrix(1.4143 0 0 1 85.3213 51.2383)" class="st2 st3 st5">BASE</text>
<text transform="matrix(1.4143 0 0 1 85.3213 51.2383)" class="st6 st3 st5">BASE</text>
</svg>
